<?xml version="1.0" ?><svg id="Icons" style="enable-background:new 0 0 32 32;" version="1.1" viewBox="0 0 32 32" xml:space="preserve" xmlns="http://www.w3.org/2000/svg" xmlns:xlink="http://www.w3.org/1999/xlink"><style type="text/css">
	.st0{fill:none;stroke:#000000;stroke-width:2;stroke-linecap:round;stroke-linejoin:round;stroke-miterlimit:10;}
</style><g><path d="M29.7,28.3L24,22.5c1.9-2,3-4.6,3-7.5c0-0.6-0.4-1-1-1s-1,0.4-1,1c0,2.4-0.9,4.5-2.4,6.1l-1.7-1.7c0.7-1,1.1-2.2,1.1-3.5   h-4.6l-2-2H22V8c0-3.3-2.7-6-6-6s-6,2.7-6,6v0.6L3.7,2.3c-0.4-0.4-1-0.4-1.4,0s-0.4,1,0,1.4l26,26c0.2,0.2,0.5,0.3,0.7,0.3   s0.5-0.1,0.7-0.3C30.1,29.3,30.1,28.7,29.7,28.3z"/><path d="M20,28h-3v-2.1c1.3-0.1,2.6-0.5,3.7-1l-1.5-1.5c-1,0.4-2.1,0.6-3.2,0.6c-4.6,0-8.4-3.5-8.9-8H10c0,3.3,2.7,6,6,6   c0.5,0,1.1-0.1,1.6-0.2L9.8,14H6c-0.6,0-1,0.4-1,1c0,5.7,4.4,10.4,10,10.9V28h-3c-0.6,0-1,0.4-1,1s0.4,1,1,1h8c0.6,0,1-0.4,1-1   S20.6,28,20,28z"/></g></svg>