<?xml version="1.0" ?><svg id="Icons" style="enable-background:new 0 0 32 32;" version="1.1" viewBox="0 0 32 32" xml:space="preserve" xmlns="http://www.w3.org/2000/svg" xmlns:xlink="http://www.w3.org/1999/xlink"><style type="text/css">
	.st0{fill:none;stroke:#000000;stroke-width:2;stroke-linecap:round;stroke-linejoin:round;stroke-miterlimit:10;}
</style><path d="M27,15c0-0.6-0.4-1-1-1s-1,0.4-1,1c0,5-4,9-9,9c-4.6,0-8.4-3.5-8.9-8H10c0,3.3,2.7,6,6,6s6-2.7,6-6h-7c-0.6,0-1-0.4-1-1  s0.4-1,1-1h7V8c0-3.3-2.7-6-6-6s-6,2.7-6,6v6H6c-0.6,0-1,0.4-1,1c0,5.7,4.4,10.4,10,10.9V28h-3c-0.6,0-1,0.4-1,1s0.4,1,1,1h8  c0.6,0,1-0.4,1-1s-0.4-1-1-1h-3v-2.1C22.6,25.4,27,20.7,27,15z"/></svg>