<?xml version="1.0" ?><svg id="Icons" style="enable-background:new 0 0 32 32;" version="1.1" viewBox="0 0 32 32" xml:space="preserve" xmlns="http://www.w3.org/2000/svg" xmlns:xlink="http://www.w3.org/1999/xlink"><style type="text/css">
	.st0{fill:none;stroke:#000000;stroke-width:2;stroke-linecap:round;stroke-linejoin:round;stroke-miterlimit:10;}
</style><g><path d="M29,30c-0.3,0-0.5-0.1-0.7-0.3l-26-26c-0.4-0.4-0.4-1,0-1.4s1-0.4,1.4,0l26,26c0.4,0.4,0.4,1,0,1.4   C29.5,29.9,29.3,30,29,30z"/></g><g><path d="M27,28.4V3c0-0.4-0.2-0.7-0.5-0.9c-0.3-0.2-0.7-0.2-1,0L13.7,9H7.6L27,28.4z"/><path d="M5.2,9.4C5.1,9.6,5,9.8,5,10v12c0,0.6,0.4,1,1,1h7.7l11.8,6.9c0.1,0,0.2,0.1,0.2,0.1L5.2,9.4z"/></g></svg>