<?xml version="1.0" ?><svg id="Icons" style="enable-background:new 0 0 32 32;" version="1.1" viewBox="0 0 32 32" xml:space="preserve" xmlns="http://www.w3.org/2000/svg" xmlns:xlink="http://www.w3.org/1999/xlink"><style type="text/css">
	.st0{fill:none;stroke:#000000;stroke-width:2;stroke-linecap:round;stroke-linejoin:round;stroke-miterlimit:10;}
</style><g><path d="M20.4,2.9c-0.3-0.2-0.7-0.1-1,0.1L9.7,10H3c-0.6,0-1,0.4-1,1v10c0,0.6,0.4,1,1,1h6.7l9.7,7.1c0.2,0.1,0.4,0.2,0.6,0.2   c0.2,0,0.3,0,0.5-0.1c0.3-0.2,0.5-0.5,0.5-0.9V3.8C21,3.4,20.8,3,20.4,2.9z"/><path d="M27.1,9.3c-0.4-0.4-1-0.4-1.4,0s-0.4,1,0,1.4C27.2,12.1,28,14,28,16s-0.8,3.9-2.3,5.3c-0.4,0.4-0.4,1,0,1.4   c0.2,0.2,0.5,0.3,0.7,0.3c0.2,0,0.5-0.1,0.7-0.3C29,20.9,30,18.6,30,16S29,11.1,27.1,9.3z"/><path d="M24.7,12.7c-0.4-0.4-1-0.4-1.4,0.1c-0.4,0.4-0.3,1,0.1,1.4c0.5,0.5,0.8,1.2,0.8,1.9s-0.3,1.4-0.8,1.9   c-0.4,0.4-0.4,1-0.1,1.4c0.2,0.2,0.5,0.3,0.7,0.3c0.2,0,0.5-0.1,0.7-0.3c1-0.9,1.5-2.1,1.5-3.3S25.6,13.5,24.7,12.7z"/></g></svg>